<svg width="16" height="16" viewBox="0 0 16 16" fill="none" xmlns="http://www.w3.org/2000/svg">
    <path d="M15.5032 13.3895C14.2936 12.3777 13.6 10.8989 13.6 9.33217V7.125C13.6 4.33912 11.5088 2.033 8.8 1.64667V0.791667C8.8 0.353875 8.4416 0 8 0C7.5584 0 7.2 0.353875 7.2 0.791667V1.64667C4.4904 2.033 2.4 4.33912 2.4 7.125V9.33217C2.4 10.8989 1.7064 12.3777 0.4896 13.3958C0.1784 13.6594 0 14.0426 0 14.4479C0 15.2119 0.628 15.8333 1.4 15.8333H14.6C15.372 15.8333 16 15.2119 16 14.4479C16 14.0426 15.8216 13.6594 15.5032 13.3895Z" fill="#007AFF"/>
</svg>
