
<svg width="17" height="21" viewBox="0 0 17 21" fill="none" xmlns="http://www.w3.org/2000/svg">
    <path d="M16.3461 6.83813H0.653809V4.65593C0.653809 4.13941 1.09291 3.7207 1.63458 3.7207H15.3654C15.907 3.7207 16.3461 4.13941 16.3461 4.65593V6.83813Z" fill="#D3EDFF"/>
    <path d="M1.63452 6.83789H15.3653L14.7707 18.7434C14.7376 19.4083 14.1626 19.9311 13.4646 19.9311H3.53525C2.83723 19.9311 2.26225 19.4083 2.22903 18.7434L1.63452 6.83789Z" fill="#D3EDFF"/>
    <path d="M16.3461 4.65593V6.83813H14.3846V4.65593C14.3846 4.13961 13.9453 3.7207 13.4038 3.7207H15.3654C15.9068 3.7207 16.3461 4.13961 16.3461 4.65593Z" fill="#D3EDFF"/>
    <path d="M15.3656 6.83789L14.771 18.7434C14.7379 19.4082 14.1629 19.9311 13.465 19.9311H11.5034C12.2014 19.9311 12.7764 19.4082 12.8095 18.7434L13.4041 6.83789H15.3656Z" fill="#D3EDFF"/>
    <path d="M15.3654 3.09697H11.7692V2.47349C11.7692 1.44212 10.8893 0.603027 9.80769 0.603027H7.19231C6.11072 0.603027 5.23077 1.44212 5.23077 2.47349V3.09697H1.63462C0.733289 3.09697 0 3.79621 0 4.65569V6.83789C0 7.18221 0.29276 7.46138 0.653846 7.46138H1.01117L1.57606 18.7731C1.62595 19.7721 2.48658 20.5546 3.53535 20.5546H13.4647C14.5135 20.5546 15.3741 19.7721 15.4239 18.7731L15.9888 7.46138H16.3462C16.7072 7.46138 17 7.18221 17 6.83789V4.65569C17 3.79621 16.2667 3.09697 15.3654 3.09697ZM6.53846 2.47349C6.53846 2.12971 6.83179 1.85 7.19231 1.85H9.80769C10.1682 1.85 10.4615 2.12971 10.4615 2.47349V3.09697H6.53846V2.47349ZM1.30769 4.65569C1.30769 4.4838 1.45436 4.34395 1.63462 4.34395H15.3654C15.5456 4.34395 15.6923 4.4838 15.6923 4.65569V6.21441C15.4908 6.21441 2.14269 6.21441 1.30769 6.21441V4.65569ZM14.1177 18.7138C14.1011 19.0468 13.8142 19.3076 13.4647 19.3076H3.53535C3.18574 19.3076 2.89887 19.0468 2.88228 18.7138L2.32034 7.46138H14.6797L14.1177 18.7138Z" fill="#007AFF"/>
    <path d="M8.50003 18.0608C8.86111 18.0608 9.15387 17.7816 9.15387 17.4373V9.33198C9.15387 8.98766 8.86111 8.7085 8.50003 8.7085C8.13895 8.7085 7.84619 8.98766 7.84619 9.33198V17.4373C7.84619 17.7816 8.13891 18.0608 8.50003 18.0608Z" fill="#007AFF"/>
    <path d="M11.7693 18.0608C12.1304 18.0608 12.4232 17.7816 12.4232 17.4373V9.33198C12.4232 8.98766 12.1304 8.7085 11.7693 8.7085C11.4082 8.7085 11.1155 8.98766 11.1155 9.33198V17.4373C11.1155 17.7816 11.4082 18.0608 11.7693 18.0608Z" fill="#007AFF"/>
    <path d="M5.23074 18.0608C5.59183 18.0608 5.88458 17.7816 5.88458 17.4373V9.33198C5.88458 8.98766 5.59183 8.7085 5.23074 8.7085C4.86966 8.7085 4.5769 8.98766 4.5769 9.33198V17.4373C4.5769 17.7816 4.86962 18.0608 5.23074 18.0608Z" fill="#007AFF"/>
</svg>