<svg width="20" height="19" viewBox="0 0 20 19" fill="none" xmlns="http://www.w3.org/2000/svg">
    <path d="M17.0711 2.78324C13.1631 -0.927469 6.83798 -0.928026 2.9295 2.78324C-0.213059 5.76716 -0.806894 10.204 1.051 13.7374L0.0209859 18.0395C-0.112894 18.5986 0.414881 19.1 1.00398 18.9729L5.53466 17.9948C12.1222 21.1178 20 16.5965 20 9.49722C20 6.96107 18.9598 4.57667 17.0711 2.78324ZM12.0862 11.8616H5.82835C5.37473 11.8616 5.007 11.5125 5.007 11.0818C5.007 10.651 5.37473 10.3019 5.82835 10.3019H12.0862C12.5399 10.3019 12.9076 10.651 12.9076 11.0818C12.9076 11.5125 12.5399 11.8616 12.0862 11.8616ZM14.1722 8.69256H5.82835C5.37473 8.69256 5.007 8.34339 5.007 7.91266C5.007 7.48193 5.37473 7.13276 5.82835 7.13276H14.1722C14.6258 7.13276 14.9936 7.48193 14.9936 7.91266C14.9936 8.34339 14.6258 8.69256 14.1722 8.69256Z" fill="#007AFF"/>
</svg>
