<svg width="34" height="34" viewBox="0 0 34 34" fill="none" xmlns="http://www.w3.org/2000/svg">
    <path d="M33.9828 16.9791C33.9823 16.4708 33.2434 15.8518 32.5938 15.3056C31.8622 14.6932 31.1052 14.0591 30.8902 13.2574C30.6668 12.4261 31.009 11.4749 31.3409 10.5556C31.6211 9.77681 31.9392 8.89431 31.7042 8.48756C31.4625 8.06575 30.5244 7.90338 29.6986 7.75838C28.7443 7.5912 27.758 7.41743 27.1579 6.81994C26.5577 6.22246 26.3836 5.23558 26.2137 4.28247C26.0674 3.45716 25.9006 2.52213 25.4799 2.27899C25.075 2.04428 24.1912 2.36423 23.4116 2.64608C22.4934 2.97994 21.5427 3.32408 20.7114 3.10311C19.9108 2.88994 19.2749 2.13451 18.6589 1.40379C18.1118 0.752576 17.491 0.0182374 16.9826 0.0188002C16.4742 0.0193629 15.855 0.758089 15.3092 1.40749C14.696 2.13958 14.0618 2.89641 13.2604 3.11075C12.429 3.33538 11.4781 2.99213 10.5586 2.66091C9.77907 2.38018 8.89395 2.05978 8.48951 2.2978C8.06759 2.53945 7.90515 3.47605 7.76068 4.30169C7.59283 5.25578 7.41959 6.24243 6.82134 6.84185C6.22309 7.44127 5.23657 7.61662 4.28262 7.78651C3.45711 7.93334 2.52246 8.09959 2.27925 8.52013C2.04447 8.9274 2.36446 9.8092 2.64696 10.5879C2.98026 11.5065 3.32446 12.4564 3.1028 13.2881C2.88955 14.0879 2.13392 14.7237 1.4036 15.3401C0.752221 15.8878 0.0176863 16.5084 0.0182322 17.0167C0.018778 17.525 0.75766 18.1441 1.4072 18.6903C2.13884 19.3027 2.89583 19.9368 3.1108 20.7385C3.33424 21.5697 2.99209 22.521 2.66015 23.4403C2.37994 24.2191 2.05882 25.1016 2.29689 25.5083C2.53859 25.9301 3.47661 26.0925 4.30243 26.2375C5.25675 26.4047 6.24303 26.5785 6.84317 27.1759C7.44332 27.7734 7.61747 28.7603 7.78737 29.7134C7.93361 30.5387 8.10047 31.4738 8.5211 31.7169C8.92605 31.9516 9.80987 31.6317 10.5894 31.3528C11.2658 31.0598 11.9864 30.8817 12.7215 30.8259C12.9131 30.8244 13.1041 30.8479 13.2897 30.8958C14.0902 31.109 14.7261 31.8644 15.3421 32.5951C15.8892 33.2463 16.51 33.9807 17.0185 33.9801C17.5269 33.9795 18.1461 33.2408 18.6918 32.5914C19.305 31.8593 19.9393 31.1025 20.7406 30.8881C21.5727 30.6635 22.5229 31.0068 23.4424 31.338C24.2214 31.6187 25.1071 31.9391 25.5115 31.7011C25.9335 31.4594 26.0959 30.5228 26.2404 29.6972C26.4082 28.7431 26.5815 27.7565 27.1797 27.157C27.778 26.5576 28.7645 26.3823 29.7184 26.2124C30.5439 26.0656 31.4786 25.8993 31.7218 25.4788C31.9566 25.0715 31.6366 24.1897 31.3541 23.411C31.0208 22.4924 30.6766 21.5425 30.8982 20.7107C31.1115 19.911 31.8671 19.2752 32.5974 18.6588C33.2458 18.1081 33.9834 17.4875 33.9828 16.9791ZM17.0126 29.6604C14.5076 29.6632 12.0581 28.9232 9.97376 27.5342C7.88944 26.1451 6.26395 24.1693 5.30285 21.8566C4.34174 19.5439 4.08819 16.9982 4.57425 14.5414C5.06031 12.0846 6.26416 9.82699 8.03356 8.05415C9.80295 6.28131 12.0584 5.07284 14.5148 4.58153C16.9711 4.09023 19.518 4.33817 21.8333 5.294C24.1487 6.24983 26.1285 7.87062 27.5224 9.95141C28.9164 12.0322 29.6618 14.4795 29.6645 16.9839C29.6643 20.341 28.3321 23.561 25.9602 25.9375C23.5884 28.314 20.3705 29.6528 17.0126 29.6604Z" fill="url(#paint0_linear)"/>
    <path d="M16.9851 5.54093C14.7187 5.54346 12.5039 6.21784 10.6208 7.4788C8.73765 8.73976 7.27079 10.5307 6.4057 12.625C5.54061 14.7194 5.31613 17.0232 5.76066 19.245C6.20518 21.4669 7.29875 23.507 8.90306 25.1074C10.5074 26.7079 12.5504 27.7967 14.7737 28.2363C16.9971 28.6759 19.3009 28.4464 21.3939 27.577C23.4868 26.7075 25.275 25.2371 26.5321 23.3517C27.7893 21.4663 28.459 19.2505 28.4566 16.9847C28.45 13.9472 27.2385 11.0365 25.0879 8.89113C22.9373 6.74574 20.0233 5.54089 16.9851 5.54093ZM22.4331 24.2271C22.4333 24.387 22.3699 24.5404 22.2569 24.6536C22.1439 24.7668 21.9906 24.8305 21.8306 24.8307L12.1807 24.8415C12.0208 24.8417 11.8673 24.7783 11.7541 24.6653C11.6409 24.5524 11.5772 24.3991 11.577 24.2392L11.5751 22.4303C11.5752 21.4156 11.9404 20.4348 12.604 19.667C13.2675 18.8992 14.1852 18.3956 15.1893 18.2482L15.1886 17.5849C14.8153 17.3071 14.5118 16.9462 14.302 16.5309C14.0923 16.1156 13.9819 15.6572 13.9798 15.1919L13.9792 14.5889C13.8192 14.5891 13.6657 14.5257 13.5525 14.4128C13.4393 14.2998 13.3756 14.1465 13.3754 13.9866L13.3741 12.7807C13.3731 11.8211 13.7534 10.9005 14.4313 10.2213C15.1092 9.54203 16.0292 9.15984 16.989 9.15877C17.9487 9.1577 18.8696 9.53784 19.5489 10.2156C20.2283 10.8933 20.6105 11.8131 20.6115 12.7726L20.6128 13.9785C20.613 14.1384 20.5496 14.2919 20.4366 14.4051C20.3236 14.5183 20.1703 14.582 20.0104 14.5822L20.011 15.1851C20.0101 15.6507 19.9009 16.1097 19.692 16.5259C19.4831 16.942 19.1802 17.3038 18.8073 17.5827L18.808 18.246C19.8122 18.3911 20.7306 18.8924 21.3958 19.6583C22.0609 20.4243 22.4284 21.4038 22.4312 22.4181L22.4331 24.2271Z" fill="url(#paint1_linear)"/>
    <ellipse rx="8.54253" ry="9.00442" transform="matrix(0.999999 -0.00111553 0.00106546 0.999999 16.9989 17.6404)" fill="url(#paint2_linear)"/>
    <path d="M12.0791 21.1645C12.4861 20.6834 12.9767 20.2589 13.5405 19.9111L14.5692 19.2765C14.0825 18.7199 13.7874 17.995 13.7866 17.203C13.7847 15.4508 15.2237 14.0236 16.9943 14.0216C18.7649 14.0196 20.2069 15.4436 20.2088 17.1959C20.2097 17.9885 19.9156 18.7147 19.4294 19.2725L20.4478 19.9048C21.0181 20.2588 21.5144 20.687 21.9264 21.1691L21.71 19.0343L25.5376 14.7686L19.9049 13.5564L16.9886 8.63598L14.0827 13.5629L8.45259 14.7876L12.2893 19.0448L12.0791 21.1645Z" fill="white"/>
    <path d="M22.2821 24.6842L22.2153 24.0253C21.981 22.7156 21.1563 21.5293 19.911 20.7561L18.6125 19.9499C18.1387 20.2238 17.5882 20.3814 17.0011 20.382C16.4139 20.3827 15.8629 20.2264 15.3886 19.9534L14.0746 20.764C12.7739 21.5665 11.94 22.8529 11.7707 24.2776L11.7532 24.4539C11.7461 24.5425 11.7416 24.6316 11.7397 24.7211L17.0032 22.4311L22.2826 24.7141C22.2824 24.7041 22.2823 24.6942 22.2821 24.6842Z" fill="white"/>
    <path d="M17.0009 19.3791C18.2166 19.3778 19.201 18.4014 19.1998 17.1983C19.1985 15.9953 18.212 15.0211 16.9963 15.0224C15.7806 15.0238 14.7962 16.0002 14.7975 17.2032C14.7988 18.4063 15.7853 19.3805 17.0009 19.3791Z" fill="white"/>
    <defs>
        <linearGradient id="paint0_linear" x1="16.9823" y1="0.0188005" x2="17.0199" y2="33.9801" gradientUnits="userSpaceOnUse">
            <stop stop-color="#007AFF"/>
            <stop offset="0.302083" stop-color="#66C6F7"/>
            <stop offset="0.697917" stop-color="#31FA9F"/>
            <stop offset="1" stop-color="#00E81D"/>
        </linearGradient>
        <linearGradient id="paint1_linear" x1="16.9851" y1="5.54093" x2="17.0107" y2="28.4539" gradientUnits="userSpaceOnUse">
            <stop stop-color="#007AFF"/>
            <stop offset="0.302083" stop-color="#66C6F7"/>
            <stop offset="0.697917" stop-color="#31FA9F"/>
            <stop offset="1" stop-color="#00E81D"/>
        </linearGradient>
        <linearGradient id="paint2_linear" x1="9.02877" y1="-3.44048" x2="8.53357" y2="18.2781" gradientUnits="userSpaceOnUse">
            <stop offset="0.168059" stop-color="#36A4E9"/>
            <stop offset="0.375321" stop-color="#63C9F2"/>
            <stop offset="0.697917" stop-color="#31FA9F"/>
            <stop offset="1" stop-color="#1FF36E"/>
        </linearGradient>
    </defs>
</svg>
