<svg width="26" height="18" viewBox="0 0 26 18" fill="none" xmlns="http://www.w3.org/2000/svg">
    <path
        d="M20.3155 17.1H16.1132H14.9816H14.7372V12.0051H16.5807C17.0482 12.0051 17.3245 11.5249 17.0482 11.1791L13.4622 6.69402C13.2338 6.4059 12.7609 6.4059 12.5325 6.69402L8.94647 11.1791C8.67021 11.5249 8.94115 12.0051 9.41398 12.0051H11.2575V17.1H11.0131H9.88149H5.00981C2.22068 16.9607 0 14.603 0 12.0483C0 10.2859 1.05721 8.74929 2.62444 7.91854C2.481 7.56799 2.40662 7.19343 2.40662 6.79967C2.40662 4.99891 4.01635 3.54389 6.00858 3.54389C6.4389 3.54389 6.85329 3.61112 7.24111 3.74078C8.39395 1.53185 10.8803 0 13.7703 0C17.5104 0.00480202 20.5917 2.59309 20.9424 5.89208C23.8165 6.33867 26 8.74449 26 11.4672C26 14.3773 23.4924 16.8983 20.3155 17.1Z"
        fill="white" />
</svg>