<svg width="6" height="22" viewBox="0 0 6 22" fill="none" xmlns="http://www.w3.org/2000/svg">
    <path
        d="M4.76777 1.06573C5.74408 2.04204 5.74408 3.62496 4.76777 4.60126C3.79146 5.57757 2.20854 5.57757 1.23223 4.60126C0.255923 3.62496 0.255923 2.04204 1.23223 1.06573C2.2085 0.0894188 3.79142 0.0894188 4.76777 1.06573Z"
        fill="#007AFF" />
    <path
        d="M4.76777 9.60723C5.74408 10.5835 5.74408 12.1665 4.76777 13.1428C3.79146 14.1191 2.20854 14.1191 1.23223 13.1428C0.255923 12.1665 0.255923 10.5835 1.23223 9.60723C2.2085 8.63092 3.79142 8.63092 4.76777 9.60723Z"
        fill="#007AFF" />
    <path
        d="M4.76777 17.7322C5.74408 18.7085 5.74408 20.2915 4.76777 21.2678C3.79146 22.2441 2.20854 22.2441 1.23223 21.2678C0.255923 20.2915 0.255923 18.7085 1.23223 17.7322C2.2085 16.7559 3.79142 16.7559 4.76777 17.7322Z"
        fill="#007AFF" />
</svg>