<svg width="48" height="48" viewBox="0 0 48 48" fill="none" xmlns="http://www.w3.org/2000/svg">
    <path
        d="M14.0411 24.2524C14.1763 23.5275 14.6596 22.9627 15.2764 22.7453M14.0411 24.2524L12.1028 34.6426C11.8831 35.8209 12.7061 36.9233 13.8055 36.9233H33.9595C34.7853 36.9233 35.497 36.2877 35.6621 35.4027L15.2764 22.7453M14.0411 24.2524L14.5326 24.3441C14.6373 23.7828 15.0056 23.3709 15.4426 23.2168L15.443 23.2167C15.4721 23.2064 15.5022 23.197 15.533 23.1887L15.5417 23.1866L15.5435 23.1862C15.5731 23.1784 15.6019 23.1719 15.6302 23.1667L14.0411 24.2524ZM15.2764 22.7453C15.3203 22.7297 15.365 22.716 15.4102 22.704L15.2764 22.7453ZM35.1706 35.311C35.0438 35.9905 34.5142 36.4233 33.9595 36.4233H13.8055C13.072 36.4233 12.4219 35.6594 12.5944 34.7343C12.5944 34.7343 12.5944 34.7343 12.5944 34.7343L14.5326 24.3441L35.1706 35.311ZM35.1706 35.311L35.6371 32.8102L37.336 23.7027C37.3432 23.6636 37.3461 23.6251 37.3452 23.5874C37.3419 23.4563 37.2909 23.3409 37.2178 23.262C37.1465 23.1849 37.0603 23.1473 36.9713 23.1473H36.1285H33.8902H32.5387H16.6278H15.8383C15.8061 23.1473 15.7714 23.149 15.7328 23.1525C15.717 23.1539 15.6987 23.1566 15.6635 23.162L15.6612 23.1624L15.6437 23.1649L15.6375 23.1657L15.6329 23.1663L35.1706 35.311ZM34.591 20.1642C34.924 20.1642 35.2464 20.3546 35.4413 20.6691H34.3902V20.1642H34.591ZM14.7765 20.8392C13.4888 21.2602 12.4952 22.4196 12.2255 23.8652C12.2255 23.8652 12.2255 23.8652 12.2255 23.8652L11.5762 27.3461V19.1261C11.5762 18.2712 12.2029 17.6529 12.8803 17.6529H14.7765V20.8392ZM32.0387 11.907V20.6691H17.1279V11.907C17.1279 11.6825 17.2857 11.5771 17.3866 11.5771H31.7802C31.881 11.5771 32.0387 11.6823 32.0387 11.907ZM31.094 18.4519C31.094 17.8108 30.6091 17.2128 29.9183 17.2128H19.2483C18.5578 17.2128 18.0726 17.8108 18.0726 18.4519C18.0726 19.093 18.5578 19.691 19.2483 19.691H29.9183C30.6091 19.691 31.094 19.093 31.094 18.4519ZM31.094 14.6357C31.094 13.9946 30.609 13.3966 29.9183 13.3966H19.2483C18.5578 13.3966 18.0726 13.9946 18.0726 14.6357C18.0726 15.2768 18.5578 15.8748 19.2483 15.8748H29.9183C30.6091 15.8748 31.094 15.2768 31.094 14.6357Z"
        fill="#D3EDFF" stroke="#007AFF" />
</svg>