<svg width="18" height="19" viewBox="0 0 18 19" fill="none" xmlns="http://www.w3.org/2000/svg">
    <path d="M17.5999 15.7106L13.8895 11.9841C14.7837 10.6877 15.231 9.24239 15.231 7.64904C15.231 6.61327 15.0308 5.62266 14.6304 4.67746C14.2303 3.73211 13.6893 2.91728 13.0078 2.23279C12.3264 1.5483 11.5152 1.00499 10.5742 0.603054C9.63286 0.201005 8.64668 0 7.61544 0C6.58428 0 5.59802 0.201005 4.65696 0.603054C3.71575 1.00499 2.90449 1.5483 2.223 2.23279C1.54143 2.91728 1.00058 3.73226 0.600373 4.67746C0.200124 5.62278 0 6.61327 0 7.64904C0 8.68474 0.200124 9.675 0.600373 10.6205C1.00055 11.5657 1.54143 12.3804 2.223 13.0649C2.90449 13.7496 3.7159 14.2927 4.65696 14.6948C5.59813 15.0968 6.58428 15.2978 7.61544 15.2978C9.20215 15.2978 10.6409 14.8485 11.9317 13.9505L15.642 17.6662C15.9017 17.9413 16.2257 18.079 16.6155 18.079C16.9905 18.079 17.3152 17.9414 17.589 17.6662C17.8629 17.391 18 17.065 18 16.6884C18.0001 16.3047 17.8667 15.9787 17.5999 15.7106ZM11.0391 11.0874C10.0909 12.0401 8.9497 12.5164 7.61544 12.5164C6.28141 12.5164 5.14026 12.04 4.19189 11.0874C3.24351 10.135 2.76934 8.98895 2.76934 7.64881C2.76934 6.30891 3.24363 5.16254 4.19189 4.21019C5.14007 3.2576 6.28141 2.78138 7.61544 2.78138C8.94955 2.78138 10.0907 3.25779 11.0391 4.21019C11.9876 5.16254 12.4618 6.30891 12.4618 7.64881C12.4618 8.98895 11.9874 10.135 11.0391 11.0874Z" fill="#9D9D9D"/>
</svg>
