<svg width="117" height="116" viewBox="0 0 117 116" fill="none" xmlns="http://www.w3.org/2000/svg">
<g filter="url(#filter0_d)">
<path d="M98.6525 42.8572C97.6431 41.8478 97.0875 40.5059 97.0875 39.0786C97.0875 37.6514 97.6437 36.3094 98.6525 35.3001L100.383 33.5704L78.8124 12L77.0827 13.7303C76.0734 14.7397 74.7314 15.2953 73.3042 15.2953C71.877 15.2953 70.535 14.7397 69.5256 13.7303L67.7953 12L60.3125 19.4828L63.7725 22.9435L60.3125 26.4035L56.8524 22.9435L16.3828 63.4124L18.1132 65.1428C19.1225 66.1522 19.6782 67.4941 19.6782 68.9214C19.6782 70.3486 19.1219 71.6906 18.1132 72.6999L16.3828 74.4296L37.9532 96L39.6829 94.2697C40.6923 93.2609 42.0342 92.7047 43.4615 92.7047C44.8893 92.7047 46.2307 93.2609 47.24 94.2697L48.9704 96L89.4393 55.5304L85.9793 52.0703L89.4393 48.6103L92.9 52.0703L100.383 44.5876L98.6525 42.8572ZM38.2191 80.0885L33.9215 75.7908L32.2174 77.4955L30.6966 75.9741L36.0665 70.6043L37.5872 72.1257L35.8832 73.8291L40.1808 78.1268L38.2191 80.0885ZM43.0154 75.2922L37.197 69.4738L39.1587 67.5121L44.9771 73.3305L43.0154 75.2922ZM49.6907 68.8835C47.82 70.7536 45.1931 70.8696 43.4063 69.0829C41.619 67.2955 41.7356 64.6692 43.6057 62.7991C44.7445 61.6603 46.0583 61.1777 47.3797 61.3527L47.2464 63.6964C46.4735 63.6053 45.8167 63.763 45.2931 64.2866C44.4785 65.1011 44.4952 66.215 45.3847 67.1045C46.2736 67.994 47.3874 68.0107 48.2026 67.1961C48.7262 66.6725 48.8839 66.0157 48.7928 65.2428L51.1365 65.1095C51.3115 66.4316 50.8295 67.7447 49.6907 68.8835ZM57.1799 61.1277L53.7968 60.6541L53.8467 61.5847L55.2849 63.0228L53.3565 64.9518L47.538 59.1327L49.4664 57.2043L51.5774 59.316L51.3781 55.2926L53.5141 53.1566L53.7468 58.0439L59.4492 58.8584L57.1799 61.1277ZM60.3394 57.9689L54.5203 52.1498L59.2499 47.4202L60.7297 48.9L57.9284 51.7012L58.6103 52.3831L61.0706 49.9221L62.4837 51.3359L60.0234 53.7962L60.788 54.5608L63.6969 51.6512L65.1767 53.131L60.3394 57.9689ZM67.8203 50.4874L63.5226 46.1897L61.8192 47.8938L60.2977 46.373L65.6676 41.0032L67.189 42.524L65.4843 44.228L69.782 48.5257L67.8203 50.4874ZM67.6459 33.737L63.9795 30.0706L67.4396 26.6099L71.106 30.2769L67.6459 33.737ZM74.9794 41.0705L71.3123 37.4034L74.7724 33.9434L78.4395 37.6104L74.9794 41.0705ZM82.3122 48.4039L78.6458 44.7369L82.1059 41.2768L85.7729 44.9432L82.3122 48.4039Z" fill="#FF8200"/>
<path d="M98.6525 42.8572C97.6431 41.8478 97.0875 40.5059 97.0875 39.0786C97.0875 37.6514 97.6437 36.3094 98.6525 35.3001L100.383 33.5704L78.8124 12L77.0827 13.7303C76.0734 14.7397 74.7314 15.2953 73.3042 15.2953C71.877 15.2953 70.535 14.7397 69.5256 13.7303L67.7953 12L60.3125 19.4828L63.7725 22.9435L60.3125 26.4035L56.8524 22.9435L16.3828 63.4124L18.1132 65.1428C19.1225 66.1522 19.6782 67.4941 19.6782 68.9214C19.6782 70.3486 19.1219 71.6906 18.1132 72.6999L16.3828 74.4296L37.9532 96L39.6829 94.2697C40.6923 93.2609 42.0342 92.7047 43.4615 92.7047C44.8893 92.7047 46.2307 93.2609 47.24 94.2697L48.9704 96L89.4393 55.5304L85.9793 52.0703L89.4393 48.6103L92.9 52.0703L100.383 44.5876L98.6525 42.8572ZM38.2191 80.0885L33.9215 75.7908L32.2174 77.4955L30.6966 75.9741L36.0665 70.6043L37.5872 72.1257L35.8832 73.8291L40.1808 78.1268L38.2191 80.0885ZM43.0154 75.2922L37.197 69.4738L39.1587 67.5121L44.9771 73.3305L43.0154 75.2922ZM49.6907 68.8835C47.82 70.7536 45.1931 70.8696 43.4063 69.0829C41.619 67.2955 41.7356 64.6692 43.6057 62.7991C44.7445 61.6603 46.0583 61.1777 47.3797 61.3527L47.2464 63.6964C46.4735 63.6053 45.8167 63.763 45.2931 64.2866C44.4785 65.1011 44.4952 66.215 45.3847 67.1045C46.2736 67.994 47.3874 68.0107 48.2026 67.1961C48.7262 66.6725 48.8839 66.0157 48.7928 65.2428L51.1365 65.1095C51.3115 66.4316 50.8295 67.7447 49.6907 68.8835ZM57.1799 61.1277L53.7968 60.6541L53.8467 61.5847L55.2849 63.0228L53.3565 64.9518L47.538 59.1327L49.4664 57.2043L51.5774 59.316L51.3781 55.2926L53.5141 53.1566L53.7468 58.0439L59.4492 58.8584L57.1799 61.1277ZM60.3394 57.9689L54.5203 52.1498L59.2499 47.4202L60.7297 48.9L57.9284 51.7012L58.6103 52.3831L61.0706 49.9221L62.4837 51.3359L60.0234 53.7962L60.788 54.5608L63.6969 51.6512L65.1767 53.131L60.3394 57.9689ZM67.8203 50.4874L63.5226 46.1897L61.8192 47.8938L60.2977 46.373L65.6676 41.0032L67.189 42.524L65.4843 44.228L69.782 48.5257L67.8203 50.4874ZM67.6459 33.737L63.9795 30.0706L67.4396 26.6099L71.106 30.2769L67.6459 33.737ZM74.9794 41.0705L71.3123 37.4034L74.7724 33.9434L78.4395 37.6104L74.9794 41.0705ZM82.3122 48.4039L78.6458 44.7369L82.1059 41.2768L85.7729 44.9432L82.3122 48.4039Z" fill="url(#paint0_linear)" fill-opacity="0.1"/>
<path d="M98.6525 42.8572C97.6431 41.8478 97.0875 40.5059 97.0875 39.0786C97.0875 37.6514 97.6437 36.3094 98.6525 35.3001L100.383 33.5704L78.8124 12L77.0827 13.7303C76.0734 14.7397 74.7314 15.2953 73.3042 15.2953C71.877 15.2953 70.535 14.7397 69.5256 13.7303L67.7953 12L60.3125 19.4828L63.7725 22.9435L60.3125 26.4035L56.8524 22.9435L16.3828 63.4124L18.1132 65.1428C19.1225 66.1522 19.6782 67.4941 19.6782 68.9214C19.6782 70.3486 19.1219 71.6906 18.1132 72.6999L16.3828 74.4296L37.9532 96L39.6829 94.2697C40.6923 93.2609 42.0342 92.7047 43.4615 92.7047C44.8893 92.7047 46.2307 93.2609 47.24 94.2697L48.9704 96L89.4393 55.5304L85.9793 52.0703L89.4393 48.6103L92.9 52.0703L100.383 44.5876L98.6525 42.8572ZM38.2191 80.0885L33.9215 75.7908L32.2174 77.4955L30.6966 75.9741L36.0665 70.6043L37.5872 72.1257L35.8832 73.8291L40.1808 78.1268L38.2191 80.0885ZM43.0154 75.2922L37.197 69.4738L39.1587 67.5121L44.9771 73.3305L43.0154 75.2922ZM49.6907 68.8835C47.82 70.7536 45.1931 70.8696 43.4063 69.0829C41.619 67.2955 41.7356 64.6692 43.6057 62.7991C44.7445 61.6603 46.0583 61.1777 47.3797 61.3527L47.2464 63.6964C46.4735 63.6053 45.8167 63.763 45.2931 64.2866C44.4785 65.1011 44.4952 66.215 45.3847 67.1045C46.2736 67.994 47.3874 68.0107 48.2026 67.1961C48.7262 66.6725 48.8839 66.0157 48.7928 65.2428L51.1365 65.1095C51.3115 66.4316 50.8295 67.7447 49.6907 68.8835ZM57.1799 61.1277L53.7968 60.6541L53.8467 61.5847L55.2849 63.0228L53.3565 64.9518L47.538 59.1327L49.4664 57.2043L51.5774 59.316L51.3781 55.2926L53.5141 53.1566L53.7468 58.0439L59.4492 58.8584L57.1799 61.1277ZM60.3394 57.9689L54.5203 52.1498L59.2499 47.4202L60.7297 48.9L57.9284 51.7012L58.6103 52.3831L61.0706 49.9221L62.4837 51.3359L60.0234 53.7962L60.788 54.5608L63.6969 51.6512L65.1767 53.131L60.3394 57.9689ZM67.8203 50.4874L63.5226 46.1897L61.8192 47.8938L60.2977 46.373L65.6676 41.0032L67.189 42.524L65.4843 44.228L69.782 48.5257L67.8203 50.4874ZM67.6459 33.737L63.9795 30.0706L67.4396 26.6099L71.106 30.2769L67.6459 33.737ZM74.9794 41.0705L71.3123 37.4034L74.7724 33.9434L78.4395 37.6104L74.9794 41.0705ZM82.3122 48.4039L78.6458 44.7369L82.1059 41.2768L85.7729 44.9432L82.3122 48.4039Z" fill="white" fill-opacity="0.1"/>
<path d="M98.299 34.9465L98.2988 34.9466C97.1965 36.0497 96.5875 37.5187 96.5875 39.0786C96.5875 40.6384 97.1957 42.1076 98.2989 43.2108L99.6757 44.5876L92.9 51.3633L89.7929 48.2567L89.4393 47.9032L89.0858 48.2567L85.6257 51.7168L85.2722 52.0703L85.6257 52.4239L88.7322 55.5304L48.9704 95.2929L47.5936 93.9161L47.5935 93.916C46.4905 92.8137 45.022 92.2047 43.4615 92.2047C41.9015 92.2047 40.4325 92.8137 39.3295 93.916L39.3293 93.9162L37.9531 95.2928L17.09 74.4297L18.4666 73.0535L18.4668 73.0534C19.5691 71.9503 20.1782 70.4813 20.1782 68.9214C20.1782 67.3616 19.5699 65.8924 18.4667 64.7892L17.0899 63.4124L56.8524 23.6506L59.9589 26.7571L60.3125 27.1106L60.666 26.7571L64.1261 23.297L64.4796 22.9435L64.1261 22.59L61.0195 19.4828L67.7953 12.7071L69.1721 14.0839C70.2752 15.1871 71.7444 15.7953 73.3042 15.7953C74.8639 15.7953 76.3331 15.1871 77.4363 14.0839L77.4364 14.0838L78.8125 12.7072L99.6756 33.5703L98.299 34.9465ZM37.8656 80.4421L38.2191 80.7956L38.5727 80.4421L40.5344 78.4804L40.888 78.1268L40.5344 77.7732L36.5904 73.8292L37.9407 72.4793L38.2943 72.1258L37.9409 71.7722L36.4201 70.2508L36.0665 69.8971L35.7129 70.2507L30.3431 75.6206L29.9896 75.974L30.343 76.3276L31.8638 77.849L32.2174 78.2028L32.571 77.849L33.9215 76.498L37.8656 80.4421ZM42.6619 75.6458L43.0154 75.9993L43.369 75.6458L45.3307 73.6841L45.6842 73.3305L45.3307 72.977L39.5122 67.1585L39.1587 66.805L38.8051 67.1585L36.8434 69.1202L36.4899 69.4738L36.8434 69.8273L42.6619 75.6458ZM50.0442 69.2372L50.0443 69.2371C51.2739 68.0075 51.8309 66.5453 51.6322 65.0439L51.5713 64.5839L51.1081 64.6103L48.7645 64.7436L48.2342 64.7737L48.2963 65.3012C48.3744 65.9649 48.2372 66.4544 47.8491 66.8426C47.5263 67.165 47.1727 67.2988 46.8351 67.2895C46.4942 67.2801 46.1099 67.1228 45.7384 66.7511L45.7383 66.7509C45.3664 66.3791 45.2091 65.9946 45.1997 65.6537C45.1904 65.316 45.3242 64.9626 45.6466 64.6401C46.0348 64.252 46.5243 64.1148 47.188 64.1929L47.7155 64.255L47.7456 63.7247L47.8789 61.3811L47.9053 60.9179L47.4454 60.857C45.9444 60.6583 44.4816 61.2161 43.2521 62.4456C41.2108 64.4869 41.0469 67.4306 43.0528 69.4364C45.058 71.4416 48.0023 71.2784 50.0442 69.2372ZM57.1106 61.6229L57.3573 61.6575L57.5335 61.4813L59.8028 59.212L60.3391 58.6757L60.3394 58.676L60.693 58.3224L65.5302 53.4845L65.8838 53.131L65.5302 52.7774L64.0505 51.2977L63.6969 50.9441L63.3433 51.2977L60.788 53.8536L60.7305 53.7962L62.8373 51.6895L63.1908 51.336L62.8374 50.9824L61.4243 49.5687L61.0962 49.2405L61.4368 48.9L61.0832 48.5464L59.6035 47.0666L59.2499 46.7131L58.8964 47.0666L54.1667 51.7963L53.8132 52.1498L53.8135 52.1501L53.1606 52.8031L51.0246 54.9391L50.8678 55.0959L50.8787 55.3174L51.0139 58.0451L49.82 56.8508L49.4665 56.4972L49.1128 56.8508L47.1845 58.7792L46.8309 59.1327L47.1845 59.4863L53.0029 65.3053L53.3565 65.659L53.7101 65.3053L55.6385 63.3763L55.9919 63.0227L55.6384 62.6692L54.3357 61.3666L54.3286 61.2335L57.1106 61.6229ZM60.1113 58.4479L59.5199 58.3635L54.2266 57.6073L54.0136 53.1328L53.9744 52.3111L54.1667 52.5034L59.9858 58.3225L60.1113 58.4479ZM67.4667 50.841L67.8203 51.1945L68.1738 50.841L70.1355 48.8792L70.4891 48.5257L70.1355 48.1721L66.1915 44.2281L67.5425 42.8776L67.8962 42.5239L67.5425 42.1703L66.021 40.6495L65.6675 40.2961L65.314 40.6496L59.9442 46.0195L59.5905 46.3731L59.9443 46.7266L61.4657 48.2474L61.8193 48.6009L62.1728 48.2473L63.5226 46.8969L67.4667 50.841ZM67.2924 34.0906L67.6459 34.4441L67.9995 34.0906L71.4595 30.6305L71.8131 30.277L71.4596 29.9234L67.7932 26.2564L67.4396 25.9027L67.086 26.2564L63.6259 29.7171L63.2724 30.0706L63.626 30.4241L67.2924 34.0906ZM74.6258 41.424L74.9794 41.7776L75.333 41.424L78.793 37.964L79.1466 37.6104L78.793 37.2569L75.126 33.5898L74.7724 33.2363L74.4188 33.5898L70.9588 37.0499L70.6052 37.4034L70.9588 37.757L74.6258 41.424ZM81.9586 48.7575L82.3122 49.1111L82.6658 48.7575L86.1265 45.2968L86.4801 44.9432L86.1264 44.5897L82.4594 40.9232L82.1058 40.5697L81.7523 40.9233L78.2923 44.3833L77.9387 44.7368L78.2922 45.0904L81.9586 48.7575Z" stroke="#7A1608" stroke-opacity="0.12"/>
</g>
<defs>
<filter id="filter0_d" x="0.382812" y="0" width="116" height="116" filterUnits="userSpaceOnUse" color-interpolation-filters="sRGB">
<feFlood flood-opacity="0" result="BackgroundImageFix"/>
<feColorMatrix in="SourceAlpha" type="matrix" values="0 0 0 0 0 0 0 0 0 0 0 0 0 0 0 0 0 0 127 0"/>
<feOffset dy="4"/>
<feGaussianBlur stdDeviation="8"/>
<feColorMatrix type="matrix" values="0 0 0 0 1 0 0 0 0 0.957258 0 0 0 0 0.779167 0 0 0 0.1 0"/>
<feBlend mode="normal" in2="BackgroundImageFix" result="effect1_dropShadow"/>
<feBlend mode="normal" in="SourceGraphic" in2="effect1_dropShadow" result="shape"/>
</filter>
<linearGradient id="paint0_linear" x1="58.4227" y1="15.2411" x2="80.4857" y2="89.4395" gradientUnits="userSpaceOnUse">
<stop stop-color="#FF800C"/>
<stop offset="1" stop-color="#FFDB03"/>
</linearGradient>
</defs>
</svg>
